<?xml version="1.0" encoding="utf-8" ?>
<svg xmlns="http://www.w3.org/2000/svg" xmlns:xlink="http://www.w3.org/1999/xlink" width="512" height="512">
	<path fill="#091877" d="M201.185 504.063C201.677 502.505 202.402 499.226 203.837 498.349C206.816 496.527 213.864 501.59 214.471 504.311C214.167 506.067 214.364 508.031 214.401 509.817C210.325 510.348 205.735 509.987 201.598 509.894L201.185 504.063Z"/>
	<path fill="#091877" d="M21.1401 217.337C22.6855 217.426 24.0269 217.835 25.4939 218.294C26.6812 219.44 27.2548 220.283 27.284 221.977L27.143 445.973C27.1484 467.68 24.5992 487.287 49.9097 496.893C56.0469 498.697 61.3875 498.428 67.7156 498.409L167 498.421C172.504 498.594 179.341 498.802 184.663 499.223L185.458 505.565L185.514 509.865C179.786 510.285 173.821 509.955 168.072 509.957L57.564 509.881C55.7949 509.823 53.8196 509.69 52.1294 509.126L48.5061 508.037C36.3931 504.064 26.506 496.319 20.7388 484.8C13.9212 471.183 15.9305 454.787 15.9275 440.063L15.8807 226.414C15.8615 221.505 16.2749 219.587 21.1401 217.337Z"/>
	<path fill="#CBD8ED" d="M23.2324 179.766C27.2219 178.707 26.6521 165.589 26.7889 162.119L52.5826 162.002L54.2091 429.59L53.9373 429.487C51.4068 428.451 49.5859 427.615 46.7999 427.039C46.6806 434.437 46.6131 437.722 48.4604 444.82C48.417 451.281 47.9321 458.713 49.6502 465L49.7895 465.749C49.9165 466.418 50.1661 468.292 50.5807 468.695C64.7186 480.871 77.9521 480.751 96.0157 480.731C101.282 480.726 106.848 481.047 112.087 480.588L196.688 479.621C200.431 479.508 212.104 477.939 214.849 480.019L214.951 480.342C215.152 480.938 215.367 481.392 215.745 481.895L216.193 481.957C216.237 483.287 217.384 484.503 217.339 485.074C217.137 487.651 213.619 486.651 215.735 489.952L216.15 490.766C216.941 491.267 217.7 491.848 218.681 491.705L219.271 491.972C219.875 491.941 220.314 492.295 220.931 492.205L221.54 492.488C222.182 492.447 222.32 492.422 222.91 492.675L223.529 492.821C224.877 493.127 226.073 494.521 227.421 495.171L227.759 495.389C229.088 496.196 234.54 496.644 234.875 497.877C233.461 498.019 232.52 497.661 231.627 499L231.646 500.354C231.57 501.6 231.339 502.925 231.034 504.136C226.749 503.352 218.631 503.212 214.471 504.311C213.864 501.59 206.816 496.527 203.837 498.349C202.402 499.226 201.677 502.505 201.185 504.063L197.526 503.49C193.687 502.95 189.489 503.201 185.608 503.294L185.458 504.667L184.663 499.223C179.341 498.802 172.504 498.594 167 498.421L67.7156 498.409C61.3875 498.428 56.0469 498.697 49.9097 496.893C24.5992 487.287 27.1484 467.68 27.143 445.973L27.284 221.977C27.2548 220.283 26.6812 219.44 25.4939 218.294C24.0269 217.835 22.6855 217.426 21.1401 217.337L21.9467 217L21.2464 211.25C21.0445 209.625 20.9683 207.861 20.0257 206.48C14.6225 205.463 13.6519 190.619 22.0632 188.276L22.7886 187.469C22.5332 184.947 23.1307 182.296 23.2324 179.766Z"/>
	<path fill="white" d="M24.312 204.298C25.5903 205.202 25.8905 206.479 26.1432 207.963L26.379 209.448C26.7122 211.481 27.3085 216.531 26.1887 218.193L25.4939 218.294C24.0269 217.835 22.6855 217.426 21.1401 217.337L21.9467 217L21.2464 211.25C21.0445 209.625 20.9683 207.861 20.0257 206.48C21.1277 205.555 22.9943 204.898 24.312 204.298Z"/>
	<path fill="#091877" d="M22.7886 187.469L23.5611 187.884C25.1042 189.871 26.8898 189.76 27.1394 192.608C27.4333 195.961 27.5515 199.752 26.5072 203.004L24.312 204.298C22.9943 204.898 21.1277 205.555 20.0257 206.48C14.6225 205.463 13.6519 190.619 22.0632 188.276L22.7886 187.469Z"/>
	<path fill="#091877" d="M23.2324 179.766C15.7679 177.625 15.9729 177.065 15.9493 169.843L15.8945 80.8484C16.2071 68.3028 22.6001 56.8943 33.2332 50.0439C42.3702 44.1573 52.7207 43.7209 63.2249 43.7506L63.1875 43.5025C62.01 34.8739 62.8944 19.2939 67.6553 12.4055L67.9112 12.0281C78.6562 -3.49505 102.178 4.59162 105.17 23.3545C105.649 26.3555 105.472 29.594 105.474 32.6292L105.369 44.1983L137.955 44.2143C139.102 44.2117 140.448 44.3453 141.562 44.1241L141.494 31.5517C141.505 23.4794 141.542 16.2193 147.578 10.0413C156.378 1.03543 167.907 1.74097 176.559 10.4572C182.467 16.41 182.958 23.4218 182.968 31.3769L182.863 44.232L231.731 44.2763C232.731 44.2785 234.391 44.4934 235.272 44.1468L235.249 29.508C235.255 18.0582 237.865 7.70149 250.875 4.24677L251.359 4.10982C259.695 1.81208 269.164 7.65164 273.238 14.6826C276.564 20.4218 276.659 26.2977 276.623 32.7287L276.522 44.2487L327.765 44.2484L327.751 32.0524C327.755 23.1293 328.083 14.3515 335.912 8.38074C340.371 4.98003 345.994 3.02719 351.62 3.83161L352.625 4.06576C357.818 5.3944 361.804 8.19188 365.069 12.443L365.299 12.7341C369.731 18.4246 369.439 26.2893 369.427 33.0856L369.263 44.25L404.493 44.3133C405.097 44.3358 406.039 44.5255 406.587 44.273L406.547 32.3421C406.533 24.1276 406.756 16.1295 412.946 9.92004C421.806 1.03172 436.703 2.04967 444.045 12.3477L444.727 13.3699C451.477 23.4919 447.116 41.3103 448.668 44.1489C452.964 44.1692 457.483 43.9124 461.75 44.3203C478.611 45.9322 492.754 58.3212 495.795 75C496.869 80.8917 496.451 87.1254 496.454 93.106L496.442 451.991C496.412 464.519 495.991 477.464 488.757 488.288C481.063 499.799 469.552 506.725 456.163 509.655C452.653 510.424 448.226 509.948 444.603 509.95L242.9 509.957C239.312 509.956 235.45 510.255 231.906 509.832C231.537 508.022 231.021 505.979 231.034 504.136C231.339 502.925 231.57 501.6 231.646 500.354L231.627 499C232.52 497.661 233.461 498.019 234.875 497.877C234.54 496.644 229.088 496.196 227.759 495.389L227.421 495.171C226.073 494.521 224.877 493.127 223.529 492.821L222.91 492.675C222.32 492.422 222.182 492.447 221.54 492.488L220.931 492.205C220.314 492.295 219.875 491.941 219.271 491.972L218.681 491.705C217.7 491.848 216.941 491.267 216.15 490.766L215.735 489.952C213.619 486.651 217.137 487.651 217.339 485.074C217.384 484.503 216.237 483.287 216.193 481.957L215.745 481.895C215.367 481.392 215.152 480.938 214.951 480.342L214.849 480.019C212.104 477.939 200.431 479.508 196.688 479.621L112.087 480.588C106.848 481.047 101.282 480.726 96.0157 480.731C77.9521 480.751 64.7186 480.871 50.5807 468.695C50.1661 468.292 49.9165 466.418 49.7895 465.749L49.6502 465C47.9321 458.713 48.417 451.281 48.4244 444.82C46.6131 437.722 46.6806 434.437 46.7999 427.039C49.5859 427.615 51.4068 428.451 53.9373 429.487L54.2233 429.59C55.7669 437.779 65.5083 448.168 72.9133 450.918C74.8624 451.642 76.6918 451.894 78.6911 452.323L82.3477 452.838C89.0062 453.487 96.1275 453.039 102.834 453.045L438.498 453.06C451.301 453.064 464.705 455.145 475.318 446.332C483.633 439.427 485.403 432.921 485.414 422.87L485.378 180.896C485.378 178.312 485.619 155.211 485.505 154.913C484.607 153.609 481.648 153.721 479.915 153.573C477.576 154.459 476.674 154.769 474.079 154.76L467.129 154.714C465.888 154.704 464.459 154.561 463.246 154.784C461.136 152.349 458.699 150.626 455.388 150.299C450.652 149.829 450.153 153.687 447.978 157.009L446.361 156.561C444.02 155.983 434.175 155.779 432.317 156.946C429.83 164.727 418.32 161.999 411.556 162L143.48 161.987C137.314 161.986 132.672 163.875 130.891 157.38C125.087 156.399 120.387 154.622 113.99 156.461C112.859 159.272 111.484 162.136 108.125 162.155L52.5826 161.995L26.7889 162.119C26.6521 165.589 27.2219 178.707 23.2324 179.766Z"/>
	<defs>
		<linearGradient id="gradient_0" gradientUnits="userSpaceOnUse" x1="144.9884" y1="38.610836" x2="168.19661" y2="49.320854">
			<stop offset="0" stop-color="#00AE88"/>
			<stop offset="1" stop-color="#AAB6CE"/>
		</linearGradient>
	</defs>
	<path fill="url(#gradient_0)" d="M158.229 73.6357C155.656 71.9275 153.1 69.7724 152.568 66.5464C151.499 60.0724 150.793 30.529 152.134 23.5732L152.199 23.25C152.919 19.4835 154.929 17.1511 158.702 15.9746L156.871 21.8045C155.87 25.728 156.022 30.1865 156.016 34.2193L156.159 51.25C156.182 56.3134 155.738 61.5932 156.281 66.625C156.543 69.057 157.852 71.188 158.229 73.6357Z"/>
	<path fill="#99A4B3" d="M81.0135 73.7756C78.4203 72.6955 75.5875 70.2317 74.5081 67.6293L74.3802 67.3109C73.0459 64.0404 73.4957 58.99 73.4864 55.4756L73.4832 30.7251C73.4888 28.121 73.3943 25.4888 73.8893 22.9189L73.9726 22.5C75.038 16.8182 79.635 14.2751 85.1897 14.911C84.3187 15.8196 83.5793 16.6145 83.0013 17.75L82.8648 18.0114C80.4305 22.8746 81.5081 33.4777 81.4994 38.8061L80.8149 55.8125C80.61 59.8293 80.6054 63.9026 80.0598 67.8915C79.7549 70.1213 81.5389 71.9337 81.0135 73.7756Z"/>
	<path fill="#CBD8ED" d="M85.1897 14.911C96.342 16.1781 94.507 30.2492 94.4789 38.1592L94.437 54.044C94.4051 63.5167 94.6315 77.4414 81.0135 73.7756C81.5389 71.9337 79.7549 70.1213 80.0598 67.8915C80.6054 63.9026 80.61 59.8293 80.8149 55.8125L81.4994 38.8061C81.5081 33.4777 80.4305 22.8746 82.8648 18.0114L83.0013 17.75C83.5793 16.6145 84.3187 15.8196 85.1897 14.911Z"/>
	<path fill="#CBD8ED" d="M158.702 15.9746C164.176 14.6685 167.768 16.3896 170.548 21.25L170.694 21.4974C173.001 25.5673 171.73 40.9324 171.724 45.899L171.704 59.5036C171.691 62.908 172.421 67.34 170.26 70.25L169.989 70.623C167.088 74.5087 162.575 75.6492 158.229 73.6357C157.852 71.188 156.543 69.057 156.281 66.625C155.738 61.5932 156.182 56.3134 156.159 51.25L156.016 34.2193C156.022 30.1865 155.87 25.728 156.871 21.8045L158.702 15.9746Z"/>
	<path fill="#CBD8ED" d="M428.762 15.0548C431.838 14.6276 435.949 18.4981 436.773 21.1173L436.878 21.4751C437.803 24.5215 437.541 27.871 437.547 31.0262L437.603 64.9581C437.52 71.2324 434.246 74.9107 427.863 74.7569C420.363 72.837 418.496 67.6847 418.482 60.8688L418.473 51.6688C418.47 42.3389 418.023 32.7363 418.681 23.4435C419.038 18.3917 424.3 16.0137 428.762 15.0548Z"/>
	<defs>
		<linearGradient id="gradient_1" gradientUnits="userSpaceOnUse" x1="246.01859" y1="44.780346" x2="265.4985" y2="45.231632">
			<stop offset="0" stop-color="#ACB6C6"/>
			<stop offset="1" stop-color="#C5D3E5"/>
		</linearGradient>
	</defs>
	<path fill="url(#gradient_1)" d="M251.927 15.9749C257.731 13.8571 263.014 16.7336 264.902 22.5673C266.001 25.9599 265.504 30.2979 265.509 33.8438L265.523 50.5733C265.524 55.8804 265.823 61.3434 265.514 66.6274C264.899 77.1818 248.997 77.6072 246.836 67.6972C246.279 65.139 246.534 62.1171 246.525 59.5L246.424 30.3537C246.408 27.6091 245.975 24.4025 246.666 21.75L246.738 21.4473C247.161 19.7516 248.258 18.4846 249.582 17.4001C250.294 16.8375 251.136 16.4198 251.927 15.9749Z"/>
	<path fill="#CBD8ED" d="M249.582 17.4001C250.294 16.8375 251.136 16.4198 251.927 15.9749C251.929 17.3859 251.86 18.3752 251.511 19.7512L251.448 20.1334C251.344 20.7158 251.185 21.2895 251.065 21.8775L250.939 22.1106C250.455 23.0406 250.398 24.6894 250.412 25.711L250.491 31.3522C250.57 35.9676 250.495 29.789 249.877 28.875L249.942 28.5949C250.458 25.4394 249.91 21.2478 249.634 18.0508L249.582 17.4001Z"/>
	<path fill="#CBD8ED" d="M349.559 14.5344L350.875 14.776C353.788 15.6684 356.144 17.9815 357.477 20.6497L357.672 21.0449C360.05 25.7165 358.773 45.1914 358.782 51.0629L358.841 60.6456C358.916 67.267 357.583 75.2516 349.36 75.2954L346.603 74.3406C340.423 71.6068 339.464 67.7437 339.507 61.8146L339.559 32.1515C339.581 22.1993 337.965 17.54 349.559 14.5344Z"/>
	<path fill="#CBD8ED" d="M48.4244 444.82C48.6441 445.122 49.914 447.026 49.8867 447.191C63.725 463.459 78.4174 464.072 97.7316 464.062L386.481 464.031C391.175 464.005 394.377 463.413 398.794 461.702L403.225 459.863C406.777 458.344 407.83 463.819 411.947 464.576C413.862 464.927 416.421 464.569 418.411 464.552L439.59 464.107C455.99 463.695 468.175 465.623 481.921 454.168C482.999 453.27 485.041 451.78 485.59 450.497C485.433 454.937 485.67 459.472 485.318 463.887C483.889 481.818 470.585 494.965 453.192 498.135C448.877 498.921 444.281 498.433 439.919 498.41L335.51 498.353L241.009 498.346C237.117 498.347 233.13 496.802 231.646 500.354L231.627 499C232.52 497.661 233.461 498.019 234.875 497.877C234.54 496.644 229.088 496.196 227.759 495.389L227.421 495.171C226.073 494.521 224.877 493.127 223.529 492.821L222.91 492.675C222.32 492.422 222.182 492.447 221.54 492.488L220.931 492.205C220.314 492.295 219.875 491.941 219.271 491.972L218.681 491.705C217.7 491.848 216.941 491.267 216.15 490.766L215.735 489.952C213.619 486.651 217.137 487.651 217.339 485.074C217.384 484.503 216.237 483.287 216.193 481.957L215.745 481.895C215.367 481.392 215.152 480.938 214.951 480.342L214.849 480.019C212.104 477.939 200.431 479.508 196.688 479.621L112.087 480.588C106.848 481.047 101.282 480.726 96.0157 480.731C77.9521 480.751 64.7186 480.871 50.5807 468.695C50.1661 468.292 49.9165 466.418 49.7895 465.749L49.6502 465C47.9321 458.713 48.417 451.281 48.4244 444.82Z"/>
	<defs>
		<linearGradient id="gradient_2" gradientUnits="userSpaceOnUse" x1="168.45862" y1="417.90308" x2="194.38472" y2="526.2049">
			<stop offset="0" stop-color="#A6B5CD"/>
			<stop offset="1" stop-color="#C2D0E6"/>
		</linearGradient>
	</defs>
	<path fill="url(#gradient_2)" d="M48.4244 444.82C48.6441 445.122 49.914 447.026 49.8867 447.191C49.0495 463.071 52.9738 472.669 70 473.463C71.5826 473.537 79.2094 474.157 79.5362 473.316L80.151 472.004C82.7923 470.981 86.3319 471.372 89.143 471.16L97.7999 470.39L203.375 469.796C205.672 469.83 207.951 470.214 210.25 470.254L231.278 470.364C261.185 471.625 289.358 484.692 318.79 489.125C317.67 489.428 316.699 488.833 315.681 489.121L314.622 490.405C314.581 490.986 314.614 490.403 314.347 491.14L314.297 491.5C314.186 492.224 313.084 496.371 312.616 496.695C312.869 497.105 313.034 497.21 313.472 497.403L328.414 497.954C330.692 497.957 333.289 497.636 335.51 498.125L241.009 498.346C237.117 498.347 233.13 496.802 231.646 500.354L231.627 499C232.52 497.661 233.461 498.019 234.875 497.877C234.54 496.644 229.088 496.196 227.759 495.389L227.421 495.171C226.073 494.521 224.877 493.127 223.529 492.821L222.91 492.675C222.32 492.422 222.182 492.447 221.54 492.488L220.931 492.205C220.314 492.295 219.875 491.941 219.271 491.972L218.681 491.705C217.7 491.848 216.941 491.267 216.15 490.766L215.735 489.952C213.619 486.651 217.137 487.651 217.339 485.074C217.384 484.503 216.237 483.287 216.193 481.957L215.745 481.895C215.367 481.392 215.152 480.938 214.951 480.342L214.849 480.019C212.104 477.939 200.431 479.508 196.688 479.621L112.087 480.588C106.848 481.047 101.282 480.726 96.0157 480.731C77.9521 480.751 64.7186 480.871 50.5807 468.695C50.1661 468.292 49.9165 466.418 49.7895 465.749L49.6502 465C47.9321 458.713 48.417 451.281 48.4244 444.82Z"/>
	<path fill="#3A77A0" d="M113.99 156.461C113.378 155.137 111.854 151.605 110.607 150.87C109.759 150.371 48.9593 150.745 42.6493 150.749L31.2009 150.752C30.1097 150.752 28.2454 151.012 27.2546 150.597L27.1879 81.125C28.0359 60.1588 44.9258 54.3247 63.1869 55.2875C62.9757 59.8999 62.7183 65.7125 63.8654 70.2052L63.9787 70.625C66.0837 78.7456 73.0453 84.1006 81.25 85.313L83.729 85.5284C102.469 85.821 105.435 70.3126 105.44 55.2383L141.501 55.1473C141.412 61.9931 140.787 69.1845 144.353 75.375C152.613 89.7166 174.732 88.485 180.925 72.729C183.143 67.0845 182.971 61.2969 182.834 55.3379C184.648 55.0531 186.765 55.2487 188.618 55.246L235.319 55.2624C235.148 66.0979 235.197 76.5517 245.772 82.9071C254.057 87.8861 264.32 86.0431 271.02 79.2841C277.611 72.6358 276.608 63.8105 276.553 55.2282L327.774 55.1863C327.642 59.4579 327.08 65.0992 328.38 69.1914C333.694 85.9139 351.7 91.9638 364.314 78.892C370.605 72.3729 369.565 63.534 369.419 55.2257L406.984 55.3101L406.782 59.0787C406.679 66.3239 407.625 74.1282 412.965 79.5368C421.275 87.9527 434.965 87.1926 443.078 78.9145C449.583 72.2773 448.525 63.1206 448.482 54.5854C470.64 55.0006 485.43 61.1114 485.404 85.9069L485.394 98.638C485.381 115.868 484.757 133.312 486.02 150.49C486.022 151.852 486.181 153.602 485.857 154.913C484.607 153.609 481.648 153.721 479.915 153.573C477.576 154.459 476.674 154.769 474.079 154.76L467.129 154.714C465.888 154.704 464.459 154.561 463.246 154.784C461.136 152.349 458.699 150.626 455.388 150.299C450.652 149.829 450.153 153.687 447.978 157.009L446.361 156.561C444.02 155.983 434.175 155.779 432.317 156.946C429.83 164.727 418.32 161.999 411.556 162L143.48 161.987C137.314 161.986 132.672 163.875 130.891 157.38C125.087 156.399 120.387 154.622 113.99 156.461Z"/>
	<path fill="#5280A3" d="M479.915 153.573C480.312 152.619 480.808 152.171 481.711 151.715L482.038 151.554C483.263 150.935 485.204 151.153 486.033 150.49C486.022 151.852 486.181 153.602 485.857 154.913C484.607 153.609 481.648 153.721 479.915 153.573Z"/>
	<path fill="#091877" d="M130.891 157.38C132.735 148.65 133.485 150.752 142.539 150.75L424.301 150.744C429.079 150.753 430.759 151.959 432.317 157.015C429.83 164.727 418.32 161.999 411.556 162L143.48 161.987C137.314 161.986 132.672 163.875 130.891 157.38Z"/>
	<path fill="white" d="M447.978 157.009C450.153 153.687 450.652 149.829 455.388 150.299C458.699 150.626 461.136 152.349 463.246 154.81C464.459 154.561 465.888 154.704 467.129 154.714L474.079 154.76C476.674 154.769 477.576 154.459 479.915 153.573C481.648 153.721 484.607 153.609 485.857 154.913C485.619 155.211 485.378 178.312 485.378 180.896L485.414 422.87C485.403 432.921 483.633 439.427 475.318 446.332C464.705 455.145 451.301 453.064 438.498 453.06L102.834 453.045C96.1275 453.039 89.0062 453.487 82.3477 452.838L78.6911 452.323C76.6918 451.894 74.8624 451.642 72.9133 450.918C65.5083 448.168 55.7669 437.779 54.2233 429.59L52.6772 162.236L108.125 162.155C111.484 162.136 112.859 159.272 113.99 156.461C120.387 154.622 125.087 156.399 130.891 157.38C132.672 163.875 137.314 161.986 143.48 161.987L411.556 162C418.32 161.999 429.83 164.727 432.317 157.015C434.175 155.779 444.02 155.983 446.361 156.561L447.978 157.009Z"/>
	<path fill="#091877" d="M447.978 157.009C450.153 153.687 450.652 149.829 455.388 150.299C458.699 150.626 461.136 152.349 463.246 154.81C463.774 161.08 454.393 167.12 447.978 157.009Z"/>
	<path fill="#091877" d="M184.536 214.603C224.145 213.44 249.189 240.739 239.571 279.458C235.526 295.739 225.62 302.987 212.36 310.974C226.795 314.187 238.874 325.217 242.174 339.75L242.645 342.788C243.407 352.424 242.477 363.1 238.506 372C228.995 393.317 204.023 407.825 181.375 409.155C175.226 409.516 162.964 408.069 156.625 406.755C140.671 403.447 127.36 393.797 120.546 379.005C114.806 366.545 122.854 361.796 134.549 361.179L150.03 360.8C150.251 361.126 150.435 361.415 150.579 361.784C156.366 376.693 180.847 380.942 192.103 369.942C200.39 361.844 202.788 343.185 194.205 334.42C187.159 327.225 173.265 327.247 163.821 327.194L151.917 327.117C151.05 322.759 151.655 304.42 151.966 299.896L160.021 299.498C172.346 298.65 188.425 297.129 196.985 287.136C208.17 274.078 200.125 246.914 180.802 248.884C168.072 250.183 161.508 259.136 154.039 268.381C150.537 265.449 147.889 261.383 144.812 258.009L131.774 244.855L135.036 240.886C148.106 225.319 164.458 216.372 184.536 214.603Z"/>
	<path fill="#091877" d="M316.386 213.851C320.568 213.648 324.949 213.517 329.112 213.96C376.125 218.961 381.262 277.211 381.257 314.091C381.253 353.392 373.384 398.232 327.561 406.168C314.166 408.528 299.491 405.374 288.793 396.838C265.847 378.529 263.443 342.538 263.424 314.959L263.609 295.928C265.494 259.738 273.55 218.117 316.386 213.851Z"/>
	<path fill="white" d="M320.691 248.771C333.247 248.579 334.481 263.469 335.762 272.968L337.814 294.159L337.983 312.881C337.947 326.23 337.692 339.652 335.587 352.86C334.297 360.959 333.061 371.175 324.385 374.596C312.695 376.503 311.454 363.758 310.14 355.05C307.282 336.121 306.34 308.591 307.629 288.875L309.933 268.79C311.15 260.742 311.835 251.777 320.691 248.771Z"/>
</svg>
