<?xml version="1.0" encoding="utf-8" ?>
<svg xmlns="http://www.w3.org/2000/svg" xmlns:xlink="http://www.w3.org/1999/xlink" width="512" height="512">
	<path fill="white" d="M259.625 463.018L122.898 462.979C105.769 462.553 92.8712 447.691 92.7803 430.698L92.7792 96.7826C92.783 92.564 92.5362 88.0916 93.0665 83.9132C95.1618 67.4049 108.533 57.0932 124.625 57.0298L170.86 57.0161C171.322 56.1233 171.347 55.1638 171.551 54.1946C172.992 47.3456 179.024 41.2148 185.168 38.3554C190.354 35.9417 194.981 35.9575 200.617 35.9379L217.816 35.8938C223.283 35.8668 223.201 36.5883 226.766 32.4385C233.998 24.022 240.908 16.1754 252.464 14.3382C266.22 13.1703 274.186 20.7389 283.016 30.4968L286.423 34.235C288.622 36.5628 290.892 35.9291 293.935 35.9298L311.01 35.9126C313.988 35.9173 317.304 35.6632 320.224 36.1991C330.676 38.1176 338.698 46.7034 341.112 56.8855C345.579 57.2038 350.162 57.0062 354.642 57.0079L378.988 57.009C384.103 57.0117 389.414 56.6897 394.476 57.5178C406.214 59.4379 415.005 69.6045 418.252 80.5891C419.612 85.1914 418.964 91.2894 418.966 96.1165L418.884 434.326C418.742 438.041 417.238 442.221 415.537 445.5C406.025 463.835 390.985 463.025 373.948 463.026L259.625 463.018ZM253.786 29.3077C240.592 32.6617 240.822 44.999 225.113 50.3068C222.955 51.036 220.303 50.8085 218.039 50.8178L203.511 50.8165C196.744 50.8109 187.455 49.8194 184.984 58.125L184.9 58.3985C183.252 64.4318 188.187 71.5699 194.076 72.9392C195.739 73.3258 197.932 73.0741 199.656 73.0597L257.75 72.9871L307.53 73.0074C311.048 73.0097 315.707 73.594 319 72.3101L319.404 72.1586C329.799 68.1699 328.639 55.4029 319.047 51.6133C316.186 50.4828 312.976 50.772 309.954 50.783L296.076 50.8326C292.39 50.8432 287.664 51.3721 284.25 49.9242C271.064 44.3325 267.209 28.0103 253.786 29.3077ZM122.627 71.7977C114.508 72.6791 108.024 78.1275 107.624 86.519L107.513 420.494C107.502 429.335 105.962 438.849 114.105 444.907C121.377 450.318 132.937 448.27 141.705 448.264L380.667 448.246C388.877 448.226 393.316 448.806 399.715 442.578C406.808 433.934 404.276 422.392 404.284 411.46L404.278 102.5C404.284 84.93 407.266 71.8585 383.387 71.7714L339.822 71.7848C338.364 73.4532 337.75 75.5483 336.015 77.4598C327.258 87.1061 319.305 87.6112 307.525 87.5269L211.936 87.483C197.543 87.4918 184.536 89.6212 174.701 76.5315C169.797 70.0042 171.941 71.7781 162.33 71.7677L122.627 71.7977Z"/>
	<path fill="white" d="M361.125 168.18L150.197 168.189C147.805 168.189 145.227 168.382 142.86 168.102C139.228 167.672 134.778 160.663 139.587 155.927C142.543 153.015 146.676 153.631 150.487 153.584L359.789 153.544C362.288 153.536 364.884 153.372 367.369 153.561C374.041 154.067 376.366 161.897 371.707 166.266C368.738 169.052 364.893 168.241 361.125 168.18Z"/>
	<path fill="white" d="M211.625 218.174L148.993 218.218C146.12 218.233 143.094 218.943 140.75 216.891C135.931 212.674 136.783 204.651 143.978 203.759C145.684 203.548 147.572 203.695 149.3 203.694L300.128 203.704L361.513 203.709C363.763 203.713 366.314 203.485 368.53 203.843C375.608 204.987 375.751 217.207 368.016 218.104C366.226 218.311 364.304 218.182 362.5 218.182L211.625 218.174Z"/>
	<path fill="white" d="M319.27 377.138C291.515 425.994 225.615 435.389 188.177 392.902C157.188 357.732 159.803 300.241 197.606 271.192C199.233 269.941 201.066 268.543 202.913 267.644C197.027 267.201 191.122 267.307 185.224 267.301L160.823 267.28C155.274 267.275 149.503 267.599 144 266.913C135.524 265.856 135.72 253.753 144.806 252.722L152.441 252.557L366.364 252.566C367.256 252.595 368.165 252.627 368.981 253.027L369.268 253.178C375.963 256.543 376.001 265.81 367.643 267.193C365.479 267.552 362.947 267.303 360.75 267.3L292.505 267.372C294.63 268.174 296.697 270.186 298.605 271.502C331.716 294.328 337.343 342.934 319.27 377.138ZM244.926 268.61C212.397 270.133 185.352 295.808 181.909 328.125C178.066 364.202 201.964 399.444 238.875 404.549C243.208 405.148 247.851 405.107 252.218 404.954C311.656 400.375 337.68 323.807 291.171 284.363C278.331 273.473 261.658 268.131 244.926 268.61Z"/>
	<path fill="white" d="M206.328 348.069C204.31 343.842 202.577 338.369 203.033 333.634C203.84 325.275 213.747 324.407 217.004 333.187C219.783 340.678 223.445 347.16 228.502 353.417C233.826 348.338 239.713 343.837 245.379 339.15C254.149 331.897 280.707 309.193 291.207 305.759C299.705 305.213 299.251 315.473 294.118 319.902C290.567 322.965 286.54 325.591 282.748 328.349L265.65 341.373L236.449 366.216C233.585 368.707 231.077 371.346 227.008 369.989C217.9 366.951 210.342 356.245 206.328 348.069Z"/>
	<path fill="white" d="M23.3385 494.643C13.8278 493.552 13.7701 480.461 23.6549 479.951L441.941 479.826C450.578 479.978 451.527 494.069 441.727 494.64C435.878 494.98 429.876 494.719 424.011 494.721L23.3385 494.643Z"/>
	<path fill="white" d="M490.922 494.1C487.912 495.107 470.447 495.293 467.64 493.977C461.88 491.277 462.494 481.986 468.554 480.056C471.992 479.721 488.624 479.414 491.012 480.357C498.175 483.183 497.284 491.261 490.922 494.1Z"/>
</svg>
